<svg id="Lag_1" data-name="Lag 1" xmlns="http://www.w3.org/2000/svg" xmlns:xlink="http://www.w3.org/1999/xlink" viewBox="0 0 850 800"><defs><style>.cls-1{fill:none;}.cls-2{clip-path:url(#clip-path);}.cls-3{font-size:120.64px;fill:#e8699c;}.cls-3,.cls-4,.cls-7{font-family:Helvetica, Helvetica;}.cls-4{font-size:47.98px;}.cls-5{letter-spacing:-0.02em;}.cls-6{letter-spacing:0em;}.cls-7{font-size:42px;}.cls-8{letter-spacing:-0.07em;}</style><clipPath id="clip-path"><rect class="cls-1" x="176.51" y="10.18" width="496.98" height="316.26"/></clipPath></defs><title>Tegnebræt 1</title><g class="cls-2"><text class="cls-3" transform="translate(231.08 230.37) scale(1.24 1)">LASH</text><text class="cls-4" transform="translate(238.41 284.25) scale(1.24 1)">BEAUT<tspan class="cls-5" x="159.98" y="0">Y</tspan><tspan class="cls-6" x="191.17" y="0" xml:space="preserve"> BAR</tspan></text><g class="cls-2"><path d="M422.86,35.06V46.43S399.53,75,420.22,106.81c0,0-32.6-34.62,2.64-71.75"/><path d="M416.13,110.58s-45.38,1.68-47.9-52.61c0,0,24.54.84,36.3,14.12l.67,6.9s-18.82-12.62-28.91-12.79c0,0,1.51,35.3,39.83,44.37"/><path d="M372.15,83.12A20.29,20.29,0,0,1,369.72,78a24.87,24.87,0,0,0-15.42,7s.51,7,8.07,14.6c0,0,5.07-3.09,6-2.31,0,0-10.61-9.38-10.82-11.31a40.82,40.82,0,0,1,14.58-2.84"/><path d="M419.09,112.51s-35.24,29-72.44-8.18c0,0,11.39,0,32.32-8.6l2.79,2.09s-15.44,5.81-18.53,10.46c0,0,23.44,21.71,55.86,4.23"/><path d="M422.61,35.08V46.46s23.33,28.57,2.64,60.38c0,0,32.6-34.62-2.64-71.75"/><path d="M429.34,110.61s45.38,1.68,47.9-52.61c0,0-24.54.84-36.3,14.12l-.67,6.9s18.82-12.62,28.91-12.79c0,0-1.51,35.3-39.83,44.37"/><path d="M473.31,83.14A20.29,20.29,0,0,0,475.74,78a24.87,24.87,0,0,1,15.42,7s-.51,7-8.07,14.6c0,0-5.07-3.09-6-2.31,0,0,10.61-9.38,10.82-11.31a40.82,40.82,0,0,0-14.58-2.84"/><path d="M426.38,112.53s35.24,29,72.44-8.18c0,0-11.39,0-32.32-8.6l-2.79,2.09s15.44,5.81,18.53,10.46c0,0-23.44,21.71-55.86,4.23"/></g></g><text class="cls-7" transform="translate(194.28 410.51)">Frederiksværksgade <tspan class="cls-8" x="394.47" y="0">1</tspan><tspan x="414.73" y="0">1b</tspan><tspan x="105.83" y="50.4">3400 Hillerød</tspan><tspan x="84.79" y="100.8">Tlf.: 51 900 398</tspan><tspan x="-85.9" y="151.2">Mail: lashbeautybar@hotmail.com</tspan></text></svg>