<svg id="Lag_1" data-name="Lag 1" xmlns="http://www.w3.org/2000/svg" viewBox="0 0 864.54 602.63"><defs><style>.cls-1{font-size:287.11px;fill:#e8699c;}.cls-1,.cls-2{font-family:Helvetica, Helvetica;}.cls-2{font-size:106.21px;}.cls-3{letter-spacing:-0.02em;}</style></defs><title>logoet</title><text class="cls-1" transform="translate(0 432.3) scale(1.15 0.93)">LASH</text><text class="cls-2" transform="translate(16.22 551.55) scale(1.24 1)">BEAUT<tspan class="cls-3" x="354.09" y="0">Y</tspan><tspan x="423.07" y="0" xml:space="preserve"> BAR</tspan></text><path d="M545.26,55.06V80.24s-51.63,63.24-5.84,133.64C539.42,213.88,467.26,137.26,545.26,55.06Z" transform="translate(-120.78 -55.06)"/><path d="M530.36,222.23s-100.44,3.72-106-116.44c0,0,54.31,1.86,80.35,31.25l1.49,15.28s-41.67-27.93-64-28.3C442.2,124,445.54,202.14,530.36,222.23Z" transform="translate(-120.78 -55.06)"/><path d="M433,161.44s-4.33-6.64-5.37-11.43a55,55,0,0,0-34.13,15.54s1.14,15.42,17.86,32.31c0,0,11.22-6.84,13.31-5.11,0,0-23.49-20.76-23.94-25C400.75,167.72,413.64,161.89,433,161.44Z" transform="translate(-120.78 -55.06)"/><path d="M536.92,226.49s-78,64.23-160.33-18.1c0,0,25.22,0,71.53-19l6.18,4.63s-34.18,12.87-41,23.16C413.27,217.13,465.16,265.18,536.92,226.49Z" transform="translate(-120.78 -55.06)"/><path d="M544.7,55.11V80.29s51.63,63.24,5.84,133.64C550.54,213.93,622.7,137.31,544.7,55.11Z" transform="translate(-120.78 -55.06)"/><path d="M559.6,222.28S660,226,665.62,105.84c0,0-54.31,1.86-80.35,31.25l-1.49,15.28s41.67-27.93,64-28.3C647.77,124.07,644.42,202.2,559.6,222.28Z" transform="translate(-120.78 -55.06)"/><path d="M656.94,161.49s4.33-6.64,5.37-11.43a55,55,0,0,1,34.13,15.54S695.3,181,678.58,197.92c0,0-11.22-6.84-13.31-5.11,0,0,23.49-20.76,23.94-25C689.21,167.78,676.32,161.94,656.94,161.49Z" transform="translate(-120.78 -55.06)"/><path d="M553,226.54s78,64.23,160.33-18.1c0,0-25.22,0-71.53-19L635.67,194s34.18,12.87,41,23.16C676.69,217.19,624.8,265.23,553,226.54Z" transform="translate(-120.78 -55.06)"/></svg>