<svg id="Lag_1" data-name="Lag 1" xmlns="http://www.w3.org/2000/svg" viewBox="0 0 864.54 595.27"><defs><style>.cls-1{font-size:287.11px;fill:#e8699c;}.cls-1,.cls-2{font-family:Helvetica, Helvetica;}.cls-2{font-size:106.21px;}.cls-3{letter-spacing:-0.02em;}.cls-4{fill:none;stroke:#000;stroke-miterlimit:10;stroke-width:8px;}</style></defs><title>logofærdigt</title><text class="cls-1" transform="translate(0 424.93) scale(1.15 0.93)">LASH</text><text class="cls-2" transform="translate(17.91 544.19) scale(1.23 1)">BEAUT<tspan class="cls-3" x="354.09" y="0">Y</tspan><tspan x="423.07" y="0" xml:space="preserve"> BAR</tspan></text><path class="cls-4" d="M533.95,108.39" transform="translate(-112.71 -62.43)"/><path d="M536.72,234s-28.49,19.6-50.8,21.14c-25.92,1.79-48.21,2-64.45-4.72s-56-25.86-56-34.47c0,0,17.8-.65,25.92-4.07S422,199,432.35,197.7s19.35-1,14.18,1.69-20.36,9.43-20.36,9.43-19.08,11-23.12,15.86c0,0,11.28,11.32,31.5,16.83s21,5.81,32,6.61a143.67,143.67,0,0,0,24.16-.4c4.79-.4,40.34-12.22,42-12.92s3.92-1.7,3.92-1.7l1.3-.4" transform="translate(-112.71 -62.43)"/><path d="M527.52,230.8S484,228.29,461,206.66s-35-35.46-39-51.56-6.68-39.74-6.41-41.5,30.2.5,47.57,7.8S501.34,142,501.34,142l.53,18.61s-14.43-10.81-27.26-16.6S450.83,133,442.28,132l-8.55-1s-1.6,8.55,5.88,25.15,18.44,35,27.52,42.5,18.17,14.84,31.27,21.13A232,232,0,0,0,527.52,230.8Z" transform="translate(-112.71 -62.43)"/><path d="M412.24,200l-13,5.7s-11.91-13.37-14.62-21.43-6.89-10,2.09-15.33,26.53-14.24,31.12-9.58a19.74,19.74,0,0,1,5.43,9.38s-2.51-3.54-18.17,1S379.86,171.08,412.24,200Z" transform="translate(-112.71 -62.43)"/><path d="M544.87,62.43a93,93,0,0,0-26.28,33.26c-9.56,21-12.16,29.44-12.45,49.07s-4.92,25.9,11.59,50.43,19.12,26.17,19.12,26.17-18.54-31.62-19.12-47.7a155.22,155.22,0,0,1,4.34-42.25c2.9-12,20.7-43.34,22.8-44.43S544.87,62.43,544.87,62.43Z" transform="translate(-112.71 -62.43)"/><path d="M553.25,234s28.49,19.6,50.8,21.14c25.92,1.79,48.21,2,64.45-4.72s56-25.86,56-34.47c0,0-17.8-.65-25.92-4.07S668,199,657.61,197.7s-19.35-1-14.18,1.69,20.36,9.43,20.36,9.43,19.08,11,23.12,15.86c0,0-11.28,11.32-31.5,16.83s-21,5.81-32,6.61a143.67,143.67,0,0,1-24.16-.4c-4.79-.4-40.34-12.22-42-12.92s-3.92-1.7-3.92-1.7l-1.3-.4" transform="translate(-112.71 -62.43)"/><path d="M562.44,230.8S606,228.29,629,206.66s35-35.46,39-51.56,6.68-39.74,6.41-41.5-30.2.5-47.57,7.8S588.63,142,588.63,142l-.53,18.61s14.43-10.81,27.26-16.6S639.13,133,647.68,132l8.55-1s1.6,8.55-5.88,25.15-18.44,35-27.52,42.5-18.17,14.84-31.27,21.13A232,232,0,0,1,562.44,230.8Z" transform="translate(-112.71 -62.43)"/><path d="M677.72,200l13,5.7s11.91-13.37,14.62-21.43,6.89-10-2.09-15.33-26.53-14.24-31.12-9.58a19.74,19.74,0,0,0-5.43,9.38s2.51-3.54,18.17,1S710.1,171.08,677.72,200Z" transform="translate(-112.71 -62.43)"/><path d="M545.1,62.43a93,93,0,0,1,26.28,33.26c9.56,21,12.16,29.44,12.45,49.07s4.92,25.9-11.59,50.43-19.12,26.17-19.12,26.17,18.54-31.62,19.12-47.7a155.22,155.22,0,0,0-4.34-42.25C565,119.4,547.2,88,545.1,87S545.1,62.43,545.1,62.43Z" transform="translate(-112.71 -62.43)"/></svg>