<svg id="Lag_1" data-name="Lag 1" xmlns="http://www.w3.org/2000/svg" viewBox="0 0 850 800"><defs><style>.cls-1{fill:none;stroke:#666;stroke-miterlimit:10;stroke-width:2px;}.cls-2{font-size:36px;}.cls-2,.cls-6{font-family:Helvetica, Helvetica;}.cls-3{letter-spacing:-0.11em;}.cls-4{letter-spacing:-0.02em;}.cls-5{letter-spacing:-0.04em;}.cls-6{font-size:48px;}</style></defs><title>Tegnebræt 1</title><rect class="cls-1" x="-5.9" y="96.24" width="854.65" height="0.58"/><rect class="cls-1" x="-5.9" y="195.67" width="854.65" height="0.58"/><rect class="cls-1" x="-5.9" y="294.83" width="854.65" height="0.58"/><rect class="cls-1" x="-5.9" y="394.12" width="854.65" height="0.58"/><rect class="cls-1" x="1.25" y="493.34" width="854.65" height="0.58"/><rect class="cls-1" x="-5.9" y="592.57" width="854.65" height="0.58"/><rect class="cls-1" x="-5.9" y="696.36" width="854.65" height="0.58"/><text class="cls-2" transform="translate(34.96 460.45)"><tspan class="cls-3">T</tspan><tspan x="18" y="0">orsdag</tspan></text><text class="cls-2" transform="translate(34.96 557.25)">Fredag</text><text class="cls-2" transform="translate(34.96 657.18)">Lørdag</text><text class="cls-2" transform="translate(587.54 557.25)">09.00 - 18.00</text><text class="cls-2" transform="translate(587.54 658.58)">LUKKE<tspan class="cls-4" x="118.05" y="0">T</tspan></text><text class="cls-2" transform="translate(587.54 457.33)">09.00 - 19.00</text><text class="cls-2" transform="translate(34.96 759.56)">Søndag</text><text class="cls-2" transform="translate(587.54 760.95)">LUKKE<tspan class="cls-4" x="118.05" y="0">T</tspan></text><text class="cls-2" transform="translate(34.96 358.75)">Onsdag</text><text class="cls-2" transform="translate(587.54 355.62)">09.00 - 16.00</text><text class="cls-2" transform="translate(34.96 259.53)"><tspan class="cls-5">T</tspan><tspan x="20.67" y="0">irsdag</tspan></text><text class="cls-2" transform="translate(587.54 256.4)">09.00 - 16.00</text><text class="cls-2" transform="translate(34.96 160.23)">Mandag</text><text class="cls-2" transform="translate(587.54 157.1)">09.00 - 16.00</text><text class="cls-6" transform="translate(34.96 64.6)">Åbningstider</text><rect class="cls-1" x="-5.9" y="797.34" width="854.65" height="0.58"/></svg>